<?xml version="1.0" encoding="utf-8"?>
<svg xmlns="http://www.w3.org/2000/svg" viewBox="38.6228 136.2482 422.7546 227.5039" width="422.755px" height="227.504px" preserveAspectRatio="none"><a id="object-1" transform="matrix(1, 0, 0, 1, 0, -5.684341886080802e-14)"><g transform="matrix(1.259544, 0, 0, 1.259544, -43.558662, -38.194893)" style=""><path d="M 361.202 319.121 L 279.794 215.071 C 277.589 212.188 275.3 209.136 272.925 205.913 C 270.55 202.69 268.176 199.383 265.802 195.991 L 265.547 195.991 L 266.056 274.855 C 266.056 279.434 265.971 283.844 265.802 288.084 C 265.632 292.324 265.378 295.546 265.039 297.751 C 267.752 297.412 271.187 297.2 275.342 297.115 C 279.497 297.03 282.423 296.988 284.119 296.988 L 284.119 316.577 L 172.095 316.577 L 172.095 299.787 C 175.996 299.617 179.26 299.108 181.889 298.26 C 184.518 297.412 186.554 295.462 187.995 292.409 C 189.436 289.356 190.157 284.438 190.157 277.654 L 190.157 236.441 L 120.197 237.204 L 120.197 274.855 C 120.197 279.434 120.112 283.844 119.943 288.084 C 119.774 292.324 119.519 295.546 119.18 297.751 C 121.893 297.412 125.328 297.2 129.483 297.115 C 133.638 297.03 136.564 296.988 138.26 296.988 L 138.26 316.577 L 65.247 316.577 L 65.247 299.787 C 69.148 299.617 72.412 299.108 75.041 298.26 C 77.67 297.412 79.706 295.462 81.147 292.409 C 82.588 289.356 83.309 284.438 83.309 277.654 L 83.309 180.219 C 83.309 175.64 83.436 171.23 83.691 166.99 C 83.946 162.75 84.158 159.528 84.327 157.323 C 81.614 157.492 78.222 157.619 74.151 157.704 C 70.08 157.789 67.112 157.916 65.247 158.086 L 65.247 138.497 L 138.26 138.497 L 138.26 155.287 C 134.529 155.457 131.306 155.966 128.593 156.814 C 125.879 157.662 123.801 159.57 122.36 162.538 C 120.918 165.506 120.197 170.467 120.197 177.42 L 120.197 217.107 L 190.157 217.107 L 190.157 180.219 C 190.157 175.64 190.242 171.23 190.412 166.99 C 190.581 162.75 190.836 159.528 191.175 157.323 C 188.462 157.492 185.07 157.619 180.999 157.704 C 176.928 157.789 173.96 157.916 172.095 158.086 L 172.095 138.497 L 265.293 138.497 L 343.139 236.695 C 347.379 242.122 350.898 246.786 353.697 250.687 C 356.496 254.588 358.912 257.98 360.947 260.863 L 361.202 260.863 L 361.202 180.219 C 361.202 175.64 361.287 171.23 361.456 166.99 C 361.626 162.75 361.796 159.528 361.965 157.323 C 359.252 157.492 355.86 157.619 351.789 157.704 C 347.718 157.789 344.75 157.916 342.885 158.086 L 342.885 138.497 L 400.888 138.497 L 400.888 155.287 C 397.157 155.457 393.934 155.966 391.221 156.814 C 388.508 157.662 386.43 159.57 384.988 162.538 C 383.547 165.506 382.826 170.467 382.826 177.42 L 382.826 319.121 L 361.202 319.121 Z M 242.015 292.409 C 243.457 289.356 244.178 284.438 244.178 277.654 L 243.669 180.219 C 243.669 175.64 243.754 171.23 243.923 166.99 C 244.093 162.75 244.348 159.528 244.687 157.323 C 241.973 157.492 238.538 157.619 234.383 157.704 C 234.046 157.711 230.263 160.367 229.208 162.538 C 227.766 165.506 227.045 170.467 227.045 177.42 L 227.045 274.855 C 227.045 279.434 226.96 283.844 226.791 288.084 C 226.622 292.324 226.367 295.546 226.028 297.751 C 228.741 297.412 237.675 297.088 238.296 297.076 C 239.805 296.02 241.045 294.465 242.015 292.409 Z" style="fill: rgb(197, 160, 89); text-wrap-mode: nowrap;"/></g></a></svg>